<svg width="64" height="64" viewBox="0 0 64 64" fill="none" xmlns="http://www.w3.org/2000/svg">
<rect x="19" y="40" width="14" height="2" fill="#222B42"/>
<path fill-rule="evenodd" clip-rule="evenodd" d="M28 6H22C20.8954 6 20 6.89543 20 8H28V6ZM36 8H44C44 6.89543 43.1046 6 42 6H36V8Z" fill="#6E7991"/>
<path fill-rule="evenodd" clip-rule="evenodd" d="M28 8H18C15.7909 8 14 9.79086 14 12V52C14 54.2091 15.7909 56 18 56H39V50C39 47.7909 40.7909 46 43 46H50V12C50 9.79086 48.2091 8 46 8H36V12C36 14.2091 34.2091 16 32 16C29.7909 16 28 14.2091 28 12V8ZM46 56H41V50C41 48.8954 41.8954 48 43 48H50V52C50 54.2091 48.2091 56 46 56ZM45 20H19V22H45V20ZM19 25H33V27H19V25ZM33 30H19V32H33V30ZM19 35H33V37H19V35ZM21 47H19V51H21V47ZM25 47H27V51H25V47ZM33 51V47H31V51H33ZM36 40H45V42H36V40ZM45 25H36V37H45V25Z" fill="#CDD7ED"/>
</svg>
