<svg width="64" height="64" viewBox="0 0 64 64" fill="none" xmlns="http://www.w3.org/2000/svg">
<path d="M32 56C45.2548 56 56 45.2548 56 32C56 31.3265 55.9723 30.6595 55.9179 30H47.7401L45.2064 38.2922C45.0816 38.7007 44.7111 38.9848 44.2843 38.9994C43.8575 39.0141 43.4685 38.7561 43.3159 38.3572L41.2942 33.0694L37.6049 51.1994C37.5091 51.6705 37.0916 52.0067 36.6109 51.9999C36.1303 51.9932 35.7224 51.6453 35.6399 51.1718L30.0222 18.9496L26.4864 40.1644C26.4095 40.6256 26.0234 40.972 25.5565 40.9984C25.0897 41.0249 24.6669 40.7243 24.5385 40.2747L20.3599 25.6499L18.9333 29.359C18.7848 29.7452 18.4138 30 18 30H8.5C8.35373 30 8.21479 29.9686 8.08956 29.9122C8.03026 30.6002 8 31.2966 8 32C8 45.2548 18.7452 56 32 56Z" fill="#6E7991"/>
<path d="M8 28.0145C9.92485 16.6565 19.938 8 32.0012 8C44.0593 8 54.0691 16.6491 56 28H47.2108C46.7649 28 46.3713 28.2873 46.241 28.7078L44.3152 34.9237L42.074 29.1429C41.913 28.7274 41.4931 28.4669 41.0437 28.5034C40.5942 28.5399 40.2233 28.8648 40.1333 29.3006L36.7677 45.6125L30.9722 12.8282C30.8873 12.3481 30.4637 11.9982 29.9695 12C29.4753 12.0018 29.0544 12.3548 28.9731 12.8356L25.1497 35.46L21.3155 22.2253C21.1958 21.8118 20.8213 21.5201 20.3856 21.501C19.95 21.4819 19.5508 21.7396 19.3942 22.141L17.1093 28H8.17298C8.11401 28 8.05621 28.005 8 28.0145Z" fill="#CDD7ED"/>
</svg>
