<svg width="64" height="64" viewBox="0 0 64 64" fill="none" xmlns="http://www.w3.org/2000/svg">
<path d="M32 14.5V5.5H35H29" stroke="#CDD7ED" stroke-width="2" stroke-linecap="round" stroke-linejoin="round"/>
<path fill-rule="evenodd" clip-rule="evenodd" d="M36 58C36 58.5523 35.5523 59 35 59H29C28.4477 59 28 58.5523 28 58C28 57.4477 28.4477 57 29 57H31V50C31 49.4477 31.4477 49 32 49C32.5523 49 33 49.4477 33 50V57H35C35.5523 57 36 57.4477 36 58Z" fill="#CDD7ED"/>
<path d="M13.75 31.75H5.75V28.75V34.75" stroke="#CDD7ED" stroke-width="2" stroke-linecap="round" stroke-linejoin="round"/>
<path d="M50.25 31.75H58.25V34.75V28.75" stroke="#CDD7ED" stroke-width="2" stroke-linecap="round" stroke-linejoin="round"/>
<path fill-rule="evenodd" clip-rule="evenodd" d="M32 50C41.9411 50 50 41.9411 50 32C50 22.0589 41.9411 14 32 14C22.0589 14 14 22.0589 14 32C14 41.9411 22.0589 50 32 50ZM32 23C33.6569 23 35 21.6569 35 20C35 18.3431 33.6569 17 32 17C30.3431 17 29 18.3431 29 20C29 21.6569 30.3431 23 32 23ZM35 45C35 46.6569 33.6569 48 32 48C30.3431 48 29 46.6569 29 45C29 43.3431 30.3431 42 32 42C33.6569 42 35 43.3431 35 45ZM22.5 32.5C22.5 30.8431 21.1569 29.5 19.5 29.5C17.8431 29.5 16.5 30.8431 16.5 32.5C16.5 34.1569 17.8431 35.5 19.5 35.5C21.1569 35.5 22.5 34.1569 22.5 32.5ZM44.5 29.5C46.1569 29.5 47.5 30.8431 47.5 32.5C47.5 34.1569 46.1569 35.5 44.5 35.5C42.8431 35.5 41.5 34.1569 41.5 32.5C41.5 30.8431 42.8431 29.5 44.5 29.5ZM38.7175 25.7825C39.8891 26.9541 41.7886 26.9541 42.9602 25.7825C44.1318 24.6109 44.1318 22.7114 42.9602 21.5398C41.7886 20.3683 39.8891 20.3683 38.7175 21.5398C37.546 22.7114 37.546 24.6109 38.7175 25.7825ZM25.2825 43.4602C24.1109 44.6317 22.2114 44.6317 21.0398 43.4602C19.8682 42.2886 19.8682 40.3891 21.0398 39.2175C22.2114 38.0459 24.1109 38.0459 25.2825 39.2175C26.454 40.3891 26.454 42.2886 25.2825 43.4602ZM25.2825 25.7825C26.4541 24.6109 26.4541 22.7114 25.2825 21.5399C24.111 20.3683 22.2115 20.3683 21.0399 21.5399C19.8683 22.7114 19.8683 24.6109 21.0399 25.7825C22.2115 26.9541 24.111 26.9541 25.2825 25.7825ZM42.9602 39.2175C44.1317 40.3891 44.1317 42.2886 42.9602 43.4601C41.7886 44.6317 39.8891 44.6317 38.7175 43.4601C37.5459 42.2886 37.5459 40.3891 38.7175 39.2175C39.8891 38.0459 41.7886 38.0459 42.9602 39.2175ZM32 35C33.6569 35 35 33.6569 35 32C35 30.3431 33.6569 29 32 29C30.3431 29 29 30.3431 29 32C29 33.6569 30.3431 35 32 35Z" fill="#CDD7ED"/>
<path fill-rule="evenodd" clip-rule="evenodd" d="M10.61 14.6027C10.2195 14.9932 10.2195 15.6264 10.61 16.0169C11.0006 16.4074 11.6337 16.4074 12.0242 16.0169L13.4385 14.6027L16.58 17.7442C17.0329 17.2546 17.5088 16.7865 18.0061 16.3418L14.8527 13.1885L16.2669 11.7742C16.6574 11.3837 16.6574 10.7506 16.2669 10.36C15.8764 9.96951 15.2432 9.96951 14.8527 10.36L10.61 14.6027Z" fill="#6E7991"/>
<path fill-rule="evenodd" clip-rule="evenodd" d="M17.7441 47.42C17.2545 46.9671 16.7864 46.4911 16.3417 45.9939L13.4383 48.8973L12.0241 47.4831C11.6336 47.0926 11.0004 47.0926 10.6099 47.4831C10.2194 47.8736 10.2194 48.5068 10.6099 48.8973L14.8526 53.1399C15.2431 53.5305 15.8762 53.5305 16.2668 53.1399C16.6573 52.7494 16.6573 52.1163 16.2668 51.7257L14.8526 50.3115L17.7441 47.42Z" fill="#6E7991"/>
<path fill-rule="evenodd" clip-rule="evenodd" d="M47.6581 45.994C47.2134 46.4912 46.7454 46.9671 46.2557 47.42L49.1473 50.3115L47.7331 51.7258C47.3425 52.1163 47.3425 52.7495 47.7331 53.14C48.1236 53.5305 48.7567 53.5305 49.1473 53.14L53.3899 48.8973C53.7804 48.5068 53.7804 47.8736 53.3899 47.4831C52.9994 47.0926 52.3662 47.0926 51.9757 47.4831L50.5615 48.8973L47.6581 45.994Z" fill="#6E7991"/>
<path fill-rule="evenodd" clip-rule="evenodd" d="M49.1472 10.36C48.7567 9.96951 48.1236 9.96951 47.733 10.36C47.3425 10.7506 47.3425 11.3837 47.733 11.7742L49.1472 13.1885L45.9939 16.3418C46.4911 16.7865 46.9671 17.2545 47.42 17.7442L50.5615 14.6027L51.9757 16.0169C52.3662 16.4074 52.9994 16.4074 53.3899 16.0169C53.7804 15.6264 53.7804 14.9932 53.3899 14.6027L49.1472 10.36Z" fill="#6E7991"/>
</svg>
