<?xml version="1.0" encoding="UTF-8" standalone="no"?><!DOCTYPE svg PUBLIC "-//W3C//DTD SVG 1.1//EN" "http://www.w3.org/Graphics/SVG/1.1/DTD/svg11.dtd"><svg width="100%" height="100%" viewBox="0 0 512 512" version="1.1" xmlns="http://www.w3.org/2000/svg" xmlns:xlink="http://www.w3.org/1999/xlink" xml:space="preserve" xmlns:serif="http://www.serif.com/" style="fill-rule:evenodd;clip-rule:evenodd;stroke-linejoin:round;stroke-miterlimit:2;"><rect id="Logo" x="0" y="0" width="512" height="512" style="fill:none;"/><g><circle cx="278.449" cy="250.342" r="221.341" style="fill:url(#_Linear1);"/><clipPath id="_clip2"><circle cx="278.449" cy="250.342" r="221.341"/></clipPath><g clip-path="url(#_clip2)"><path d="M82.673,147.05c0,0 169.453,-65.723 195.776,184.705c21.846,207.823 90.287,162.225 105.582,117.479c15.296,-44.747 30.932,60.611 30.932,60.611l-221.743,5.088l-192.144,-246.782l81.597,-121.101Z" style="fill:url(#_Linear3);"/><path d="M259.368,29.002c0,0 -83.575,40.706 104.351,155.193c149.489,91.069 -65.658,190.504 15.59,278.346c39.14,42.317 180.808,-67.831 163.731,-277.074c-17.076,-209.244 -176.112,-185.425 -283.672,-156.465Z" style="fill:url(#_Linear4);"/></g><circle cx="414.963" cy="80.245" r="51.244" style="fill:url(#_Linear5);"/><circle cx="34.659" cy="460.549" r="22.449" style="fill:url(#_Linear6);"/></g><defs><linearGradient id="_Linear1" x1="0" y1="0" x2="1" y2="0" gradientUnits="userSpaceOnUse" gradientTransform="matrix(227,384.667,-384.667,227,153.433,64.567)"><stop offset="0" style="stop-color:#ff29f0;stop-opacity:1"/><stop offset="1" style="stop-color:#5600d0;stop-opacity:1"/></linearGradient><linearGradient id="_Linear3" x1="0" y1="0" x2="1" y2="0" gradientUnits="userSpaceOnUse" gradientTransform="matrix(144.415,332.235,-332.235,144.415,96.433,139.263)"><stop offset="0" style="stop-color:#5bffee;stop-opacity:1"/><stop offset="1" style="stop-color:#00b986;stop-opacity:1"/></linearGradient><linearGradient id="_Linear4" x1="0" y1="0" x2="1" y2="0" gradientUnits="userSpaceOnUse" gradientTransform="matrix(200.774,318.565,-318.565,200.774,265.433,29.0017)"><stop offset="0" style="stop-color:#ffd300;stop-opacity:1"/><stop offset="1" style="stop-color:#ff3f38;stop-opacity:1"/></linearGradient><linearGradient id="_Linear5" x1="0" y1="0" x2="1" y2="0" gradientUnits="userSpaceOnUse" gradientTransform="matrix(65,102.488,-102.488,65,378.433,29.0017)"><stop offset="0" style="stop-color:#f600d4;stop-opacity:1"/><stop offset="1" style="stop-color:#7d1079;stop-opacity:1"/></linearGradient><linearGradient id="_Linear6" x1="0" y1="0" x2="1" y2="0" gradientUnits="userSpaceOnUse" gradientTransform="matrix(21,44.8987,-44.8987,21,25.567,438.1)"><stop offset="0" style="stop-color:#fff5e2;stop-opacity:1"/><stop offset="1" style="stop-color:#ffc220;stop-opacity:1"/></linearGradient></defs></svg>