<svg width="160" height="160" viewBox="0 0 160 160" fill="none" xmlns="http://www.w3.org/2000/svg">
<path fill-rule="evenodd" clip-rule="evenodd" d="M74.9594 24.0027C75.1394 24.0009 75.3196 24 75.5 24C75.6804 24 75.8606 24.0009 76.0406 24.0027C77.6974 24.0191 79.0272 25.3755 79.0107 27.0323C78.9943 28.689 77.6379 30.0188 75.9812 30.0024C75.821 30.0008 75.6606 30 75.5 30C75.3394 30 75.179 30.0008 75.0188 30.0024C73.3621 30.0188 72.0057 28.689 71.9893 27.0323C71.9728 25.3755 73.3026 24.0191 74.9594 24.0027ZM85.1762 27.8347C85.5877 26.2298 87.2224 25.2624 88.8273 25.674C89.1764 25.7635 89.5242 25.8565 89.8705 25.9528C91.4667 26.3969 92.4007 28.0509 91.9566 29.6472C91.5125 31.2434 89.8585 32.1774 88.2623 31.7333C87.9551 31.6478 87.6466 31.5653 87.3369 31.4859C85.732 31.0744 84.7646 29.4397 85.1762 27.8347ZM65.8238 27.8347C66.2354 29.4397 65.268 31.0744 63.6631 31.4859C63.3534 31.5653 63.0449 31.6478 62.7378 31.7333C61.1415 32.1774 59.4875 31.2434 59.0434 29.6472C58.5993 28.0509 59.5333 26.3969 61.1295 25.9528C61.4758 25.8565 61.8236 25.7635 62.1727 25.674C63.7776 25.2624 65.4123 26.2298 65.8238 27.8347ZM53.2992 32.0297C54.1144 33.4721 53.606 35.3023 52.1636 36.1175C51.8859 36.2745 51.61 36.4342 51.3358 36.5965C49.9101 37.4407 48.07 36.9693 47.2258 35.5436C46.3817 34.118 46.8531 32.2779 48.2787 31.4337C48.5876 31.2508 48.8985 31.071 49.2113 30.8941C50.6537 30.0789 52.4839 30.5873 53.2992 32.0297ZM97.7008 32.0297C98.5161 30.5873 100.346 30.0789 101.789 30.8941C102.102 31.071 102.412 31.2508 102.721 31.4337C104.147 32.2779 104.618 34.118 103.774 35.5436C102.93 36.9693 101.09 37.4407 99.6642 36.5965C99.39 36.4342 99.1141 36.2745 98.8364 36.1175C97.394 35.3023 96.8856 33.4721 97.7008 32.0297ZM42.2949 39.3333C43.4547 40.5166 43.4357 42.416 42.2525 43.5758C42.0247 43.7991 41.7991 44.0247 41.5758 44.2525C40.416 45.4357 38.5166 45.4547 37.3333 44.2949C36.1501 43.1351 36.1311 41.2357 37.2909 40.0525C37.5422 39.7961 37.7961 39.5422 38.0525 39.2909C39.2357 38.1311 41.1351 38.1501 42.2949 39.3333ZM108.705 39.3333C109.865 38.1501 111.764 38.1311 112.948 39.2909C113.204 39.5422 113.458 39.7961 113.709 40.0525C114.869 41.2357 114.85 43.1351 113.667 44.2949C112.483 45.4547 110.584 45.4357 109.424 44.2525C109.201 44.0247 108.975 43.7991 108.748 43.5758C107.564 42.416 107.545 40.5166 108.705 39.3333ZM117.456 49.2258C118.882 48.3817 120.722 48.8531 121.566 50.2787C121.749 50.5876 121.929 50.8985 122.106 51.2113C122.921 52.6537 122.413 54.4839 120.97 55.2992C119.528 56.1144 117.698 55.606 116.882 54.1636C116.726 53.8859 116.566 53.61 116.403 53.3358C115.559 51.9101 116.031 50.07 117.456 49.2258ZM33.5436 49.2258C34.9693 50.07 35.4407 51.9101 34.5965 53.3358C34.4342 53.61 34.2745 53.8859 34.1175 54.1636C33.3023 55.606 31.4721 56.1144 30.0297 55.2992C28.5873 54.4839 28.0789 52.6537 28.8941 51.2113C29.071 50.8985 29.2508 50.5876 29.4337 50.2788C30.2779 48.8531 32.118 48.3817 33.5436 49.2258ZM123.353 61.0434C124.949 60.5993 126.603 61.5333 127.047 63.1295C127.144 63.4758 127.236 63.8236 127.326 64.1727C127.738 65.7776 126.77 67.4123 125.165 67.8238C123.56 68.2354 121.926 67.268 121.514 65.6631C121.435 65.3534 121.352 65.0449 121.267 64.7378C120.823 63.1415 121.757 61.4875 123.353 61.0434ZM27.6472 61.0434C29.2434 61.4875 30.1774 63.1415 29.7333 64.7378C29.6478 65.0449 29.5653 65.3534 29.4859 65.6631C29.0744 67.268 27.4397 68.2354 25.8347 67.8238C24.2298 67.4123 23.2624 65.7776 23.674 64.1727C23.7635 63.8236 23.8565 63.4758 23.9528 63.1295C24.3969 61.5333 26.0509 60.5993 27.6472 61.0434ZM25.0323 73.9893C26.689 74.0057 28.0188 75.3621 28.0024 77.0188C28.0008 77.179 28 77.3394 28 77.5C28 77.6606 28.0008 77.821 28.0024 77.9812C28.0188 79.6379 26.689 80.9943 25.0323 81.0107C23.3755 81.0272 22.0191 79.6974 22.0027 78.0406C22.0009 77.8606 22 77.6804 22 77.5C22 77.3196 22.0009 77.1394 22.0027 76.9594C22.0191 75.3026 23.3755 73.9728 25.0323 73.9893ZM125.968 73.9893C127.625 73.9728 128.981 75.3026 128.997 76.9594C128.999 77.1394 129 77.3196 129 77.5C129 77.6804 128.999 77.8606 128.997 78.0406C128.981 79.6974 127.625 81.0272 125.968 81.0107C124.311 80.9943 122.981 79.6379 122.998 77.9812C122.999 77.821 123 77.6606 123 77.5C123 77.3394 122.999 77.179 122.998 77.0188C122.981 75.3621 124.311 74.0057 125.968 73.9893ZM25.8347 87.1762C27.4397 86.7646 29.0744 87.732 29.4859 89.3369C29.5653 89.6466 29.6478 89.9551 29.7333 90.2623C30.1774 91.8585 29.2434 93.5125 27.6472 93.9566C26.0509 94.4007 24.3969 93.4667 23.9528 91.8705C23.8565 91.5242 23.7635 91.1764 23.674 90.8273C23.2624 89.2224 24.2298 87.5877 25.8347 87.1762ZM125.165 87.1762C126.77 87.5877 127.738 89.2224 127.326 90.8273C127.236 91.1764 127.144 91.5242 127.047 91.8705C126.603 93.4667 124.949 94.4007 123.353 93.9566C121.757 93.5125 120.823 91.8585 121.267 90.2623C121.352 89.9551 121.435 89.6466 121.514 89.3369C121.926 87.732 123.56 86.7646 125.165 87.1762ZM30.0297 99.7008C31.4721 98.8856 33.3023 99.394 34.1175 100.836C34.2745 101.114 34.4342 101.39 34.5965 101.664C35.4407 103.09 34.9693 104.93 33.5436 105.774C32.118 106.618 30.2779 106.147 29.4337 104.721C29.2508 104.412 29.071 104.102 28.8941 103.789C28.0789 102.346 28.5873 100.516 30.0297 99.7008ZM120.97 99.7008C122.413 100.516 122.921 102.346 122.106 103.789C121.929 104.102 121.749 104.412 121.566 104.721C120.722 106.147 118.882 106.618 117.456 105.774C116.031 104.93 115.559 103.09 116.403 101.664C116.566 101.39 116.726 101.114 116.882 100.836C117.698 99.394 119.528 98.8856 120.97 99.7008ZM37.3333 110.705C38.5166 109.545 40.416 109.564 41.5758 110.748C41.7991 110.975 42.0247 111.201 42.2525 111.424C43.4357 112.584 43.4547 114.483 42.2949 115.667C41.1351 116.85 39.2357 116.869 38.0525 115.709C37.7961 115.458 37.5422 115.204 37.2909 114.948C36.1311 113.764 36.1501 111.865 37.3333 110.705ZM113.667 110.705C114.85 111.865 114.869 113.764 113.709 114.948C113.458 115.204 113.204 115.458 112.948 115.709C111.764 116.869 109.865 116.85 108.705 115.667C107.545 114.483 107.564 112.584 108.748 111.424C108.975 111.201 109.201 110.975 109.424 110.748C110.584 109.564 112.483 109.545 113.667 110.705ZM47.2258 119.456C48.07 118.031 49.9101 117.559 51.3358 118.403C51.61 118.566 51.8859 118.726 52.1636 118.882C53.606 119.698 54.1144 121.528 53.2992 122.97C52.4839 124.413 50.6537 124.921 49.2113 124.106C48.8985 123.929 48.5876 123.749 48.2788 123.566C46.8531 122.722 46.3817 120.882 47.2258 119.456ZM103.774 119.456C104.618 120.882 104.147 122.722 102.721 123.566C102.412 123.749 102.102 123.929 101.789 124.106C100.346 124.921 98.5161 124.413 97.7008 122.97C96.8856 121.528 97.394 119.698 98.8364 118.882C99.1141 118.726 99.39 118.566 99.6642 118.403C101.09 117.559 102.93 118.031 103.774 119.456ZM59.0434 125.353C59.4875 123.757 61.1415 122.823 62.7378 123.267C63.0449 123.352 63.3534 123.435 63.6631 123.514C65.268 123.926 66.2354 125.56 65.8238 127.165C65.4123 128.77 63.7776 129.738 62.1727 129.326C61.8236 129.236 61.4758 129.144 61.1295 129.047C59.5333 128.603 58.5993 126.949 59.0434 125.353ZM91.9566 125.353C92.4007 126.949 91.4667 128.603 89.8705 129.047C89.5242 129.144 89.1764 129.236 88.8273 129.326C87.2224 129.738 85.5877 128.77 85.1762 127.165C84.7646 125.56 85.732 123.926 87.3369 123.514C87.6466 123.435 87.9551 123.352 88.2623 123.267C89.8585 122.823 91.5125 123.757 91.9566 125.353ZM71.9893 127.968C72.0057 126.311 73.3621 124.981 75.0188 124.998C75.179 124.999 75.3394 125 75.5 125C75.6606 125 75.821 124.999 75.9812 124.998C77.6379 124.981 78.9943 126.311 79.0107 127.968C79.0272 129.625 77.6974 130.981 76.0406 130.997C75.8606 130.999 75.6804 131 75.5 131C75.3196 131 75.1394 130.999 74.9594 130.997C73.3026 130.981 71.9728 129.625 71.9893 127.968Z" fill="#003BAD"/>
<circle cx="37" cy="46" r="17" fill="#0056FD" stroke="#222B42" stroke-width="2"/>
<circle cx="58" cy="122" r="13" fill="#0056FD" stroke="#222B42" stroke-width="2"/>
<circle cx="123" cy="94" r="17" fill="#0056FD" stroke="#222B42" stroke-width="2"/>
<circle cx="80" cy="80" r="10" fill="#F34848" stroke="#222B42" stroke-width="2"/>
</svg>
