<svg width="64" height="64" viewBox="0 0 64 64" fill="none" xmlns="http://www.w3.org/2000/svg">
<path fill-rule="evenodd" clip-rule="evenodd" d="M25.0514 26.0858C24.2703 25.3047 23.004 25.3047 22.2229 26.0858C21.4419 26.8668 21.4419 28.1332 22.2229 28.9142L32 38L53.7974 16.3471C57.2502 21.7356 56.6435 29.0138 51.9775 33.7382L51.4221 34.3006L32.0336 54L12.0225 33.7382C6.65918 28.3078 6.65918 19.5033 12.0225 14.0728C17.3857 8.64239 26.0813 8.64239 31.4446 14.0728L32 14.6352L32.5554 14.0728C37.6861 8.87787 45.8664 8.6526 51.2616 13.397L32 33L25.0514 26.0858Z" fill="#CDD7ED"/>
<path fill-rule="evenodd" clip-rule="evenodd" d="M25.0514 26.0858C24.2703 25.3047 23.004 25.3047 22.2229 26.0858C21.4419 26.8668 21.4419 28.1332 22.2229 28.9142L32 38V53.966L12.0225 33.7382C6.65918 28.3078 6.65918 19.5033 12.0225 14.0728C17.3857 8.64239 26.0813 8.64239 31.4446 14.0728L32 14.6352V33L25.0514 26.0858Z" fill="#6E7991"/>
</svg>
