<svg width="24" height="24" viewBox="0 0 24 24" fill="none" xmlns="http://www.w3.org/2000/svg">
<path fill-rule="evenodd" clip-rule="evenodd" d="M5 10C5 7.23858 7.23858 5 10 5C12.7614 5 15 7.23858 15 10C15 12.7614 12.7614 15 10 15C7.23858 15 5 12.7614 5 10ZM10 3C6.13401 3 3 6.13401 3 10C3 13.866 6.13401 17 10 17C11.5639 17 13.008 16.4871 14.1733 15.6204L19.7652 21.6783C20.1398 22.0841 20.7725 22.1094 21.1783 21.7348C21.5841 21.3602 21.6094 20.7275 21.2348 20.3217L15.5931 14.2099C16.4763 13.0383 17 11.5803 17 10C17 6.13401 13.866 3 10 3Z" fill="#0056FD"/>
</svg>
